<?xml version="1.0" standalone="no"?>
<!DOCTYPE svg PUBLIC "-//W3C//DTD SVG 20010904//EN"
 "http://www.w3.org/TR/2001/REC-SVG-20010904/DTD/svg10.dtd">
<svg version="1.0" xmlns="http://www.w3.org/2000/svg"
 width="223.000000pt" height="223.000000pt" viewBox="0 0 223.000000 223.000000"
 preserveAspectRatio="xMidYMid meet">
<metadata>
Created by potrace 1.14, written by Peter Selinger 2001-2017
</metadata>
<g transform="translate(0.000000,223.000000) scale(0.100000,-0.100000)"
fill="#000000" stroke="none">
<path d="M1298 2154 c-10 -21 -9 -31 3 -53 19 -34 10 -119 -14 -132 -22 -13
-63 -83 -86 -150 -24 -70 -52 -123 -97 -178 -52 -65 -46 -97 26 -133 l55 -27
18 22 c10 12 31 42 47 67 28 44 30 45 82 45 29 1 67 4 84 9 30 7 32 5 49 -36
36 -89 46 -202 52 -585 l5 -373 -52 0 -52 0 16 25 c21 32 46 129 46 178 0 54
-22 91 -106 179 -41 43 -74 81 -74 85 0 5 20 16 45 27 86 35 82 86 -6 86 -45
0 -62 11 -40 24 14 9 30 62 22 75 -12 19 -56 -3 -114 -56 -29 -27 -74 -59
-102 -73 -59 -30 -122 -90 -131 -125 -7 -26 9 -55 31 -55 19 0 42 -32 50 -68
4 -19 1 -63 -5 -98 -12 -62 -11 -66 9 -85 25 -23 26 -38 7 -84 -13 -31 -19
-35 -51 -35 l-36 0 16 30 c20 38 19 40 -10 40 -47 0 -80 27 -114 89 -37 69
-55 76 -102 37 -26 -22 -27 -26 -13 -34 13 -7 16 -19 11 -50 -3 -23 -1 -57 3
-77 l8 -35 -48 0 -48 0 -7 78 c-7 93 -28 155 -60 181 -20 15 -22 21 -12 35 16
22 128 23 202 3 28 -8 71 -20 97 -28 26 -7 50 -10 54 -6 11 11 -5 51 -36 89
-49 60 -122 89 -243 98 -57 4 -113 13 -125 19 -30 16 -64 5 -102 -32 -42 -41
-60 -84 -60 -144 0 -26 -6 -66 -14 -88 -11 -32 -12 -112 -8 -397 l5 -358 744
0 745 0 -5 343 c-5 377 -19 514 -93 937 -50 286 -100 445 -161 519 -18 22 -18
28 -6 75 7 27 13 70 13 94 l0 43 -33 -25 c-18 -14 -53 -33 -78 -41 -24 -9 -57
-28 -72 -43 l-29 -27 7 45 c4 25 14 57 21 72 25 49 8 97 -29 82 -16 -6 -31
-49 -22 -63 3 -5 -2 -24 -11 -42 -15 -34 -15 -33 -9 35 6 70 -3 96 -31 96 -8
0 -20 -12 -26 -26z m-478 -1627 c0 -39 -8 -53 -100 -167 -55 -68 -100 -128
-100 -132 0 -5 45 -8 100 -6 l100 3 0 -53 0 -52 -197 2 -198 3 -3 36 c-3 33 6
48 102 165 l106 129 -93 5 -92 5 -3 53 -3 52 190 0 191 0 0 -43z m368 28 c82
-35 125 -105 125 -205 0 -103 -38 -171 -115 -211 -116 -59 -263 -15 -314 94
-57 123 -9 274 101 323 42 18 157 17 203 -1z m500 0 c82 -35 125 -105 125
-205 0 -102 -38 -171 -113 -210 -91 -46 -210 -30 -278 38 -107 107 -71 319 63
378 42 18 157 17 203 -1z"/>
<path d="M1044 449 c-16 -17 -19 -37 -19 -111 0 -82 2 -91 24 -109 30 -25 44
-24 78 5 26 23 28 28 28 109 0 70 -3 89 -19 106 -24 27 -68 27 -92 0z"/>
<path d="M1540 443 c-19 -25 -21 -38 -18 -111 3 -74 6 -86 27 -103 30 -25 44
-24 78 5 26 23 28 28 28 109 0 70 -3 89 -19 106 -27 30 -70 27 -96 -6z"/>
</g>
</svg>
